<?xml version="1.0" encoding="utf-8"?>
<svg id="Capa_1" enable-background="new 0 0 512 512" viewBox="0 0 512 512" width="512px" height="512px" xmlns="http://www.w3.org/2000/svg" xmlns:bx="https://boxy-svg.com"><defs><bx:export><bx:file format="svg" path="tree.svg"/></bx:export></defs><g><path d="m363.434 89.989c-21.072 21.071-29.909 50.207-33.544 73.222-3.203 20.281 14.353 37.838 34.634 34.634 23.015-3.635 52.15-12.472 73.222-33.544 21.072-21.071 29.909-50.207 33.544-73.222 3.203-20.281-14.353-37.838-34.634-34.634-23.015 3.635-52.151 12.472-73.222 33.544z" fill="#f6ee86"/><path d="m146.366 161.068c-21.071-21.071-50.207-29.908-73.222-33.544-20.281-3.203-37.837 14.353-34.634 34.634 3.635 23.015 12.472 52.15 33.544 73.222 21.071 21.072 50.207 29.909 73.222 33.544 20.281 3.204 37.838-14.353 34.634-34.634-3.635-23.015-12.472-52.15-33.544-73.222z" fill="#f6ee86"/><path d="m371.372 443.846c-10.725-18.063-35.121-57.765-35.121-115.53h-138.604c0 57.765-24.396 97.467-35.121 115.53z" fill="#e1ac9a"/><path d="m336.251 328.316h-138.604c0 15.733-1.818 30.115-4.668 43.095 3.046-.106 6.088.63 8.773 2.195 19.044 11.098 41.647 17.086 65.197 17.086s46.153-5.988 65.197-17.086c2.685-1.565 5.727-2.301 8.773-2.195-2.85-12.98-4.668-27.362-4.668-43.095z" fill="#d2896f"/><path d="m387.304 104.074c-1.428-9.53-3.594-18.878-6.436-27.915-6.177 3.895-12.068 8.464-17.434 13.83-21.071 21.071-29.908 50.207-33.544 73.222-3.203 20.281 14.353 37.838 34.634 34.634 22.133-3.496 49.922-11.809 70.761-31.181-6.407-25.474-23.382-48.134-47.981-62.59z" fill="#f2d98d"/><path d="m179.91 234.29c-3.635-23.015-12.472-52.15-33.544-73.222-10.379-10.379-22.716-17.785-35.313-23.068-10.233 15.981-15.686 34.48-15.261 53.553-14.38 7.465-26.438 17.62-35.505 29.539 3.423 5.032 7.319 9.841 11.767 14.288 21.071 21.072 50.207 29.909 73.222 33.544 20.281 3.203 37.838-14.354 34.634-34.634z" fill="#f2d98d"/><path d="m407.279 199.819c4.829-29.342-11.411-58.778-41.283-73.134-4.099-1.97-6.95-5.859-7.395-10.386-5.659-57.452-43.552-108.799-91.652-108.799s-85.993 51.346-91.651 108.799c-.446 4.526-3.296 8.416-7.396 10.385-29.918 14.375-46.112 43.829-41.281 73.147 1.008 6.116-2.276 12.119-8.065 14.336-27.7 10.606-46.944 33.947-46.944 61.052 0 37.088 36.017 67.154 80.446 67.154 13.82 0 26.82-2.916 38.178-8.044 6.429-2.903 14.022-1.949 19.529 2.459 14.578 11.67 34.808 18.905 57.184 18.905 22.375 0 42.606-7.236 57.184-18.905 5.507-4.408 13.1-5.362 19.529-2.459 11.358 5.128 24.358 8.044 38.178 8.044 44.429 0 80.445-30.066 80.445-67.154 0-27.1-19.237-50.438-46.93-61.046-5.795-2.22-9.084-8.23-8.076-14.354z" fill="#f6ca8e"/><path d="m310.034 345.771c-103.644 5.107-120.244-84.379-105.758-113.655 2.046-4.136 1.756-9.03-.827-12.855-15.627-23.144-12.454-59.519 3.275-78.271 3.451-4.115 4.172-9.884 1.529-14.559-7.561-13.374-16.017-43.536-12.182-73.108-11.122 18.106-18.516 40.053-20.774 62.977-.446 4.526-3.296 8.416-7.396 10.385-29.919 14.375-46.112 43.829-41.281 73.147 1.008 6.116-2.276 12.119-8.065 14.336-27.7 10.606-46.944 33.947-46.944 61.052 0 37.088 36.017 67.154 80.445 67.154 13.82 0 26.82-2.916 38.178-8.044 6.429-2.903 14.022-1.949 19.529 2.459 14.578 11.67 34.808 18.905 57.184 18.905 15.862-.001 30.632-3.65 43.087-9.923z" fill="#f3a977"/><path d="m453.768 504.5h-373.638c-15.869 0-25.449-17.56-16.86-30.903 11.936-18.543 32.477-29.75 54.53-29.75h298.298c22.053 0 42.594 11.207 54.53 29.75 8.589 13.343-.992 30.903-16.86 30.903z" fill="#f6ca8e"/><path d="m219.203 443.846h-101.403c-22.053 0-42.594 11.207-54.53 29.75-8.589 13.344.992 30.904 16.86 30.904h158.62c-22.665-16.358-22.62-45.749-19.547-60.654z" fill="#f3a977"/><g><g fill="#fff"><ellipse cx="186.921" cy="220.698" rx="23.515" ry="29.529" transform="matrix(.002 -1 1 .002 -34.186 407.136)"/><ellipse cx="346.977" cy="221.049" rx="23.515" ry="29.529" transform="matrix(.002 -1 1 .002 125.169 567.541)"/></g></g><path d="M 476.935 469.538 C 463.558 448.754 440.815 436.347 416.098 436.347 L 375.641 436.347 C 365.525 419.25 347.612 387.27 344.301 342.74 C 355.97 347.41 368.859 349.873 381.84 349.873 C 430.333 349.873 469.785 316.383 469.785 275.219 C 469.785 245.922 449.474 219.211 418.038 207.169 C 415.619 206.242 414.238 203.721 414.68 201.037 C 415.317 197.166 415.614 193.3 415.609 189.464 C 426.131 183.972 435.346 177.307 443.05 169.604 C 466.048 146.606 475.129 114.844 478.697 92.25 C 482.701 66.913 460.826 45.038 435.485 49.037 C 413.346 52.535 382.412 61.334 359.539 83.319 C 345.916 39.533 311.989 0 266.949 0 C 241.633 0 217.398 12.952 198.709 36.47 C 196.132 39.713 196.671 44.431 199.914 47.008 C 203.157 49.585 207.875 49.046 210.452 45.802 C 226.237 25.939 246.301 15 266.949 15 C 287.317 15 307.173 25.68 322.859 45.072 C 338.192 64.027 348.499 90.257 351.136 117.034 C 351.836 124.153 356.177 130.288 362.746 133.445 C 389.271 146.194 404.193 172.378 399.878 198.602 C 398.292 208.236 403.673 217.73 412.672 221.177 C 438.254 230.976 454.784 252.189 454.784 275.219 C 454.784 308.112 422.061 334.873 381.839 334.873 C 369.573 334.873 357.439 332.321 346.747 327.494 C 337.812 323.46 327.096 324.809 319.444 330.933 C 305.541 342.063 286.896 348.193 266.948 348.193 C 246.999 348.193 228.355 342.063 214.451 330.933 C 206.801 324.809 196.084 323.459 187.149 327.494 C 176.457 332.322 164.323 334.873 152.057 334.873 C 111.834 334.873 79.111 308.112 79.111 275.219 C 79.111 252.184 95.646 230.97 121.236 221.172 C 130.23 217.729 135.606 208.241 134.02 198.613 C 129.698 172.381 144.619 146.192 171.148 133.445 C 177.717 130.289 182.058 124.154 182.759 117.035 C 184.201 102.399 187.785 88.218 193.413 74.885 C 195.024 71.069 193.236 66.67 189.42 65.059 C 185.604 63.448 181.205 65.236 179.594 69.052 C 173.379 83.776 169.422 99.425 167.832 115.565 C 167.648 117.426 166.46 119.056 164.652 119.925 C 152.937 125.554 143.087 133.38 135.509 142.613 C 118.917 131.491 98.388 123.919 74.313 120.117 C 48.975 116.118 27.097 137.988 31.101 163.329 C 35.956 194.068 48.129 224.647 71.571 245.192 C 66.748 254.494 64.11 264.687 64.11 275.22 C 64.11 316.384 103.562 349.874 152.056 349.874 C 165.038 349.874 177.926 347.411 189.595 342.741 C 186.284 387.271 168.371 419.25 158.254 436.348 L 117.8 436.348 C 93.084 436.348 70.342 448.756 56.964 469.539 C 45.148 487.895 58.305 512 80.13 512 L 371.371 512 C 375.514 512 378.871 508.642 378.871 504.5 C 378.871 500.358 375.514 497 371.371 497 L 80.13 497 C 70.184 497 64.195 486.017 69.576 477.656 C 80.18 461.182 98.207 451.346 117.799 451.346 L 416.097 451.346 C 435.69 451.346 453.717 461.181 464.321 477.656 C 469.705 486.018 463.711 497 453.767 497 L 407.38 497 C 403.237 497 399.88 500.358 399.88 504.5 C 399.88 508.642 403.237 512 407.38 512 L 453.767 512 C 475.599 512 488.747 487.891 476.935 469.538 Z M 397.178 141.163 L 431.621 106.72 C 434.55 103.791 434.55 99.042 431.621 96.114 C 428.691 93.185 423.943 93.185 421.014 96.114 L 386.393 130.735 C 381.25 126.586 375.516 122.939 369.246 119.926 C 367.437 119.057 366.249 117.427 366.065 115.565 C 365.568 110.521 364.819 105.529 363.868 100.604 C 382.118 79.046 410.044 68.243 437.826 63.854 C 453.096 61.442 466.293 74.644 463.882 89.91 C 460.66 110.307 452.592 138.85 432.444 158.998 C 427.075 164.367 420.798 169.159 413.73 173.332 C 410.982 161.616 405.304 150.604 397.178 141.163 Z M 45.919 160.988 C 43.507 145.724 56.701 132.523 71.975 134.933 C 98.071 139.054 115.84 147.523 127.148 155.042 C 120.21 167.876 117.114 182.394 118.697 197.104 L 82.152 160.559 C 79.223 157.63 74.474 157.63 71.546 160.559 C 68.617 163.488 68.617 168.237 71.546 171.165 L 110.016 209.635 C 97.861 215.251 87.628 223.149 79.932 232.528 C 60.256 214.457 50.101 187.463 45.919 160.988 Z M 175.592 436.346 C 186.619 416.783 201.826 384.99 204.669 342.36 C 204.804 342.458 204.948 342.538 205.079 342.643 C 221.634 355.895 243.606 363.193 266.95 363.193 C 290.294 363.193 312.266 355.895 328.82 342.643 C 328.951 342.538 329.097 342.457 329.232 342.359 C 332.075 384.999 347.283 416.786 358.31 436.347 L 175.592 436.347 L 175.592 436.346 Z"/></g><path d="M 197.023 186.133 L 197.023 198.133 C 197.023 202.275 200.381 205.633 204.523 205.633 C 208.665 205.633 212.023 202.275 212.023 198.133 L 212.023 186.133 C 212.023 181.991 208.665 178.633 204.523 178.633 C 200.381 178.633 197.023 181.991 197.023 186.133 Z M 245.579 212.218 C 242.457 214.94 242.131 219.677 244.853 222.8 C 250.432 229.201 258.494 232.873 266.971 232.873 C 275.448 232.873 283.51 229.202 289.089 222.8 C 291.811 219.677 291.486 214.94 288.363 212.218 C 285.241 209.496 280.503 209.821 277.782 212.944 C 275.052 216.076 271.112 217.872 266.971 217.872 C 262.83 217.872 258.89 216.076 256.161 212.944 C 253.44 209.821 248.701 209.495 245.579 212.218 Z M 321.92 186.133 L 321.92 198.133 C 321.92 202.275 325.278 205.633 329.42 205.633 C 333.562 205.633 336.92 202.275 336.92 198.133 L 336.92 186.133 C 336.92 181.991 333.562 178.633 329.42 178.633 C 325.278 178.633 321.92 181.991 321.92 186.133 Z"/></svg>