<svg id="Capa_1" enable-background="new 0 0 511.998 511.998" viewBox="0 0 511.998 511.998" xmlns="http://www.w3.org/2000/svg"><g><g><path d="m387.394 282.377c-19.909-19.909-24.902-50.253-25.676-71.601-.527-14.529 11.341-26.396 25.87-25.87 21.348.774 51.692 5.767 71.601 25.676s24.902 50.253 25.676 71.601c.527 14.529-11.341 26.397-25.87 25.87-21.349-.774-51.693-5.767-71.601-25.676z" fill="#f6ee86"></path><path d="m387.587 184.907c-14.529-.527-26.396 11.341-25.87 25.87.691 19.049 4.751 45.256 19.76 64.825 25.364-6.953 46.6-17.026 64.835-30.775 8.285-6.247 15.993-13.322 23.128-21.162-2.879-4.674-6.262-9.09-10.253-13.082-19.907-19.909-50.252-24.902-71.6-25.676z" fill="#f2d98d"></path><path d="m70.088 203.218c19.909-19.909 50.253-24.902 71.601-25.676 14.529-.527 26.396 11.341 25.87 25.87-.774 21.348-5.767 51.692-25.676 71.601s-50.253 24.902-71.601 25.676c-14.529.527-26.396-11.341-25.87-25.87.775-21.348 5.768-51.693 25.676-71.601z" fill="#f6ee86"></path><path d="m52.316 231.827c14.067 4.561 28.096 8.06 41.77 11.463 12.492 3.108 24.291 6.045 34.695 9.482 6.659 2.2 11.098 8.432 11.046 15.508-.021 2.91-.096 5.879-.203 8.877.765-.697 1.521-1.407 2.258-2.144 19.909-19.909 24.902-50.253 25.676-71.6.527-14.529-11.341-26.396-25.87-25.87-21.348.774-51.692 5.767-71.601 25.676-8.213 8.213-13.883 18.205-17.771 28.608z" fill="#f2d98d"></path><path d="m220.532 33.19c19.909-19.909 50.253-24.902 71.601-25.676 14.529-.527 26.396 11.341 25.87 25.87-.774 21.348-5.767 51.692-25.676 71.601s-50.253 24.902-71.601 25.676c-14.529.527-26.396-11.341-25.87-25.87.774-21.348 5.767-51.692 25.676-71.601z" fill="#f6ee86"></path><path d="m253.851 109.936c-18.834-23.935-35.1-44.605-40.48-64.972-.211-.798-.441-1.587-.68-2.371-13.437 19.24-17.174 43.989-17.835 62.198-.527 14.529 11.341 26.397 25.869 25.87 12.575-.456 28.27-2.38 43.116-7.949-3.391-4.387-6.738-8.643-9.99-12.776z" fill="#f2d98d"></path><path d="m230.017 270.806c-14.986-76.73-91.808-118.132-113.506-200.249-4.951-18.738 6.226-37.941 24.963-42.892 18.738-4.943 37.941 6.226 42.892 24.963 16.268 61.574 95.602 107.802 114.531 204.727 3.715 19.02-8.693 37.451-27.714 41.166-18.979 3.713-37.445-8.659-41.166-27.715z" fill="#d2896f"></path><path d="m345.77 220.814c-9.863-8.676-27.783-30.127-36.995-76.316-3.913-19.628-8.685-57.742 3.337-92.484 6.338-18.314 26.318-28.022 44.638-21.686 18.314 6.337 28.024 26.322 21.686 44.637-4.686 13.541-5.05 34.133-.974 55.086 4.328 22.255 11.903 35.479 14.693 38.094 14.552 12.801 15.956 34.959 3.155 49.511-12.817 14.573-35.006 15.942-49.54 3.158z" fill="#e1ac9a"></path><path d="m311.952 158.234c9.716 36.803 24.991 54.816 33.818 62.58 14.534 12.784 36.723 11.415 49.54-3.157 12.801-14.552 11.397-36.71-3.155-49.511-2.766-2.593-10.233-15.617-14.579-37.525-11.189 16.076-25.298 18.896-51.722 24.147-4.372.869-9.05 2.038-13.902 3.466z" fill="#d2896f"></path><path d="m459.477 108.749c-17.81-7.659-38.445.571-46.1 18.376-19.2 44.655-46.771 50.132-81.676 57.068-22.526 4.476-53.23 18.135-70.527 35.142-4.043 3.975-10.819 2.885-13.171-2.273-23.73-52.035-122.158-63.973-173.378-83.53-18.103-6.912-38.38 2.265-45.245 20.389-6.864 18.124 2.264 38.381 20.389 45.245 29.454 11.153 61.735 16.302 88.426 25.121 19.036 6.289 31.779 24.165 31.632 44.212-.38 51.876-14.056 138.753-51.899 169.027h282.319c-40.508-30.436-61.615-105.347-57.061-156.916 1.412-15.993 12.891-29.299 28.412-33.404 36.284-9.597 79.374-29.842 106.254-92.358 7.657-17.805-.571-38.444-18.375-46.099z" fill="#e1ac9a"></path><path d="m462.705 504.498h-412.552c-17.522 0-28.1-19.389-18.616-34.122 13.179-20.475 35.86-32.849 60.209-32.849h329.366c24.35 0 47.03 12.374 60.209 32.849 9.484 14.733-1.094 34.122-18.616 34.122z" fill="#f6ca8e"></path><path d="m203.711 437.527h-111.965c-24.35 0-47.03 12.374-60.209 32.849-9.483 14.733 1.095 34.122 18.616 34.122h175.14c-25.026-18.062-24.975-50.514-21.582-66.971z" fill="#f3a977"></path></g><path d="m220.374 300.626c-4.11.508-7.031 4.252-6.523 8.363 3.61 29.224-5.897 62.435-13.168 77.628-1.789 3.735-.209 8.214 3.527 10.002 3.736 1.789 8.214.21 10.002-3.527 6.912-14.441 18.844-50.989 14.525-85.942-.508-4.11-4.246-7.036-8.363-6.524zm82.983-49.301c-3.33-2.462-8.027-1.759-10.49 1.57-11.629 15.725-12.815 61.672-7.365 81.104 1.118 3.987 5.255 6.314 9.247 5.196 3.988-1.119 6.314-5.259 5.196-9.247-5.251-18.721-2.364-58.2 4.983-68.134 2.462-3.33 1.759-8.026-1.571-10.489zm184.271 214.991c-14.626-22.723-39.492-36.289-66.516-36.289h-18.29c-36.56-29.365-56.474-99.965-52.165-148.756.8-9.057 5.703-17.112 12.983-22.208 4.586 11.336 10.77 20.938 18.451 28.618 21.517 21.516 53.549 27.029 76.632 27.867 19 .667 34.316-14.886 33.637-33.637-1.1-30.31-9.584-61.784-32.888-81.193 9.277-11.624 17.883-25.722 25.272-42.908 9.276-21.575-.729-46.675-22.303-55.952-21.624-9.301-46.652.67-55.952 22.303-4.705 10.942-9.909 19.295-15.648 25.816-7.857-20.326-12.168-52.756-5.315-72.561 7.68-22.193-4.128-46.497-26.323-54.178-11.782-4.075-24.157-2.659-34.324 2.885-3.149-15.754-17.124-26.644-33.016-26.106-23.084.838-55.117 6.352-76.633 27.867-8.745 8.745-15.493 19.877-20.188 33.215-1.343-3.425-2.496-6.882-3.423-10.39-5.996-22.697-29.349-36.296-52.059-30.297-14.428 3.812-25.95 15.099-30.072 29.456-1.143 3.982 1.158 8.136 5.14 9.278 3.981 1.145 8.135-1.157 9.278-5.14 2.672-9.308 10.139-16.623 19.483-19.092 14.716-3.876 29.844 4.923 33.728 19.626 7.364 27.874 26.746 52.506 47.266 78.584 16.504 20.974 33.523 42.618 46.926 68.472-5.631 3.794-10.862 7.934-15.391 12.386-.331.325-.907.365-1.089-.036-13.347-29.266-46.52-46.245-83.306-58.838-16.182-20.846-32.637-43.536-42.874-71.088-1.443-3.883-5.759-5.865-9.643-4.418-3.883 1.442-5.86 5.76-4.418 9.643 8.132 21.885 20.091 41.11 32.35 58.117-25.926-7.62-51.178-13.791-69.636-20.84-21.933-8.372-46.571 2.656-54.935 24.739-8.337 22.014 2.729 46.578 24.746 54.916 2.787 1.055 5.597 2.04 8.416 2.996-13.968 20.542-17.917 46.253-18.61 65.37-.681 18.789 14.675 34.305 33.636 33.638 23.084-.838 55.117-6.352 76.633-27.867 5.611-5.611 10.404-12.27 14.377-19.86.519 2.59.784 5.263.764 7.989-.36 49.188-13.25 131.798-47.135 161.582h-23.448c-27.023 0-51.89 13.566-66.516 36.289-12.711 19.751 1.443 45.682 24.923 45.682h302.888c4.143 0 7.5-3.357 7.5-7.5s-3.357-7.5-7.5-7.5h-302.888c-11.6 0-18.587-12.811-12.309-22.563 11.853-18.415 32.003-29.408 53.902-29.408h329.366c21.899 0 42.05 10.993 53.902 29.408 6.278 9.753-.711 22.563-12.31 22.563h-74.28c-4.143 0-7.5 3.357-7.5 7.5s3.357 7.5 7.5 7.5h74.28c11.016 0 20.743-5.773 26.019-15.444 5.277-9.669 4.867-20.972-1.095-30.236zm-10.259-183.861c.367 10.122-7.837 18.46-18.104 18.103-20.395-.74-48.499-5.415-66.568-23.484-6.262-6.262-11.35-14.217-15.181-23.71 9.455-2.667 19.881-6.237 30.611-11.462.711.744 22.638 22.653 30.237 30.257 2.928 2.928 7.677 2.931 10.606.001 2.93-2.93 2.93-7.678.001-10.607l-27.184-27.184c9.389-5.832 18.791-13.135 27.777-22.391 20.017 16.435 26.862 44.487 27.805 70.477zm-158.169-227.988c4.974-14.375 20.722-22.026 35.097-17.052 14.378 4.976 22.027 20.72 17.052 35.098-5.098 14.733-5.565 36.778-1.249 58.97 2.555 13.142 6.05 22.747 8.889 29.057-16.535 11.33-37.177 13.517-52.729 17.162-14.12-34.859-20.073-85.628-7.06-123.235zm-114.105 26.651c3.656-18.17 10.621-32.507 20.74-42.625 18.069-18.069 46.174-22.744 66.568-23.484 10.316-.359 18.468 8.035 18.103 18.105-.076 2.102-.207 4.212-.364 6.309-2.104 3.069-3.844 6.457-5.118 10.139-4.113 11.888-6.35 24.114-7.366 35.903-3.041 5.408-6.611 10.191-10.636 14.216-14.542 14.543-35.747 20.205-52.303 22.329-11.274-14.334-21.621-27.618-29.624-40.892zm40.196 54.39c21.616-4.05 39.369-12.497 51.87-24.775.603 14.115 2.51 26.46 4.26 35.232 2.602 13.047 6.088 25.075 10.361 35.917-8.979 3.046-18.507 7.086-27.606 11.978-11.443-21.84-25.445-41.017-38.885-58.352zm-108.712 134.2c-18.069 18.069-46.174 22.744-66.568 23.484-10.187.357-18.473-7.905-18.103-18.103.662-18.273 4.518-43.19 18.732-61.207 13.557 3.895 26.807 7.005 39.685 10.285l-31.717 31.716c-2.929 2.93-2.929 7.678 0 10.607 2.931 2.929 7.678 2.928 10.607 0 36.815-37.135 36.052-35.276 37.123-38.01 10.961 3.175 18.898 5.396 26.625 14.364-3.942 10.893-9.441 19.922-16.384 26.864zm-.98 160.319c32.007-41.078 41.431-120.909 41.728-161.473.172-23.411-14.608-44.062-36.779-51.389-27.208-8.99-59.119-14.03-88.123-25.013-14.259-5.4-21.434-21.312-16.031-35.575 5.398-14.253 21.321-21.477 35.557-16.039 49.995 19.088 147.395 31.758 169.228 79.635 4.514 9.901 17.508 12.123 25.253 4.509 16.633-16.353 46.16-29.046 66.738-33.135 35.598-7.074 66.341-13.184 87.099-61.461 6.021-14.009 22.232-20.475 36.246-14.448 13.977 6.011 20.458 22.272 14.449 36.247-26.353 61.287-67.97 79.26-101.282 88.07-18.638 4.93-32.288 21.003-33.966 39.995-4.153 47.026 12.091 112.869 45.453 150.076h-245.57zm125.269-375.984-19.483 19.482c-2.93 2.929-2.93 7.678-.001 10.606 2.928 2.928 7.677 2.931 10.606.001l19.483-19.482c2.93-2.929 2.93-7.678.001-10.606-2.928-2.929-7.677-2.93-10.606-.001z"></path></g></svg>