<?xml version="1.0" encoding="utf-8"?>
<svg id="Capa_1" enable-background="new 0 0 511.982 511.982" viewBox="0 0 511.982 511.982" width="511.982px" height="511.982px" xmlns="http://www.w3.org/2000/svg" xmlns:bx="https://boxy-svg.com"><defs><bx:export><bx:file format="svg"/></bx:export></defs><g><path d="m462.523 196.264c-9.602 9.602-20.643 36.211-11.041 45.814 9.602 9.602 36.211-1.438 45.814-11.041 9.602-9.602 9.602-25.171 0-34.773-9.603-9.603-25.171-9.603-34.773 0z" fill="#f8d4a5"/><path d="m223.145 442.695c-13.685-2.574-22.693-15.753-20.12-29.438 1.917-10.195 1.469-22.351.863-31.802-.89-13.896 9.654-25.883 23.55-26.773 13.882-.89 25.883 9.654 26.773 23.55.794 12.393 1.326 28.633-1.629 44.344-2.576 13.706-15.776 22.689-29.437 20.119z" fill="#e1b89a"/><path d="m353.878 423.6c-2.418-10.453-4.641-16.542-11.416-24.987-8.714-10.862-6.973-26.731 3.888-35.444 10.862-8.714 26.732-6.973 35.444 3.889 12.591 15.694 17.451 28.92 21.212 45.174 3.139 13.566-5.314 27.109-18.881 30.248-13.625 3.152-27.121-5.373-30.247-18.88z" fill="#e7c7af"/><path d="m326.019 400.591s-28.533 0-122.255 0-141.679-68.912-126.916-130.649c14.319-59.878 94.374-144.064 249.172-144.064 75.86 0 137.357 61.497 137.357 137.357-.001 75.86-61.498 137.356-137.358 137.356z" fill="#fae0bd"/><path d="m96.395 350.189c28.408-3.477 95.833-51.226 143.157-125.249 60.209-56.96 190.45-24.947 218.908 1.779l12.903-62.128c1.481-7.13-3.963-13.821-11.246-13.821h-3.349c-4.878 0-8.658-4.264-8.073-9.107l3.777-31.265c.71-5.877-4.898-10.519-10.539-8.724l-23.348 7.43c-3.51 1.117-7.332-.265-9.316-3.367l-20.853-32.605c-2.877-4.498-9.235-5.05-12.844-1.114l-18.012 19.643c-2.776 3.027-7.373 3.509-10.716 1.124l-31.436-22.429c-4.342-3.098-10.441-1.247-12.329 3.742l-5.505 14.55c-1.69 4.467-6.849 6.523-11.148 4.442l-41.541-20.104c-4.819-2.332-10.538.548-11.533 5.809l-2.688 14.216c-1.002 5.302-6.795 8.175-11.623 5.765l-38.521-19.234c-4.541-2.267-10.026.134-11.442 5.008l-9.598 33.054c-1.304 4.49-6.117 6.959-10.524 5.397l-39.248-13.902c-5.216-1.848-10.714 1.942-10.844 7.474l-.71 30.141c-.1 4.271-3.489 7.736-7.756 7.932l-39.058 1.796c-5.77.265-9.432 6.293-7.007 11.536l13.278 28.716c2.007 4.341-.147 9.468-4.652 11.073l-34.651 12.343c-5.785 2.061-7.286 9.545-2.742 13.677l19.152 17.413c3.403 3.094 3.565 8.391.358 11.687l-25.273 25.978c-4.016 4.128-2.586 11.008 2.742 13.194l26.957 11.059c3.471 1.424 5.389 5.163 4.521 8.813l-8.94 37.595c-1.83 7.694 5.953 14.149 13.176 10.928l41.426-18.47c2.128-.948 4.397-1.512 6.71-1.795z" fill="#e7c7af"/><path d="m156.252 122.046c-2.064 1.406-4.746 1.859-7.296.955l-39.248-13.902c-5.216-1.848-10.714 1.942-10.844 7.474l-.71 30.141c-.1 4.271-3.489 7.736-7.756 7.932l-39.058 1.796c-5.77.265-9.432 6.293-7.007 11.536l13.278 28.716c2.007 4.341-.147 9.468-4.652 11.073l-34.653 12.343c-5.785 2.061-7.286 9.546-2.742 13.677l19.152 17.414c3.403 3.094 3.565 8.391.358 11.687l-25.271 25.977c-4.016 4.128-2.586 11.008 2.742 13.194l26.957 11.059c3.471 1.424 5.389 5.163 4.521 8.813l-8.94 37.595c-1.83 7.694 5.953 14.149 13.176 10.928l41.426-18.47c2.128-.949 4.398-1.513 6.71-1.796 19.805-2.424 58.574-26.372 96.274-65.733-52.511-43.731-46.212-120.913-36.417-162.409z" fill="#e1b89a"/><g fill="#f8d4a5"><path d="m235.93 196.264c9.602 9.602 20.643 36.211 11.041 45.814-9.602 9.602-36.211-1.438-45.814-11.041-9.602-9.602-9.602-25.171 0-34.773 9.602-9.603 25.171-9.603 34.773 0z"/><path d="m179.044 442.588c-13.626-2.87-22.346-16.242-19.476-29.868 2.321-11.019 3.228-21.83 2.624-31.265-.89-13.896 9.654-25.883 23.55-26.773 13.898-.89 25.883 9.654 26.773 23.55.905 14.131-.307 29.231-3.603 44.88-2.869 13.624-16.239 22.345-29.868 19.476z"/><path d="m307.516 426.705c-3.87-10.406-7.641-18.338-15.466-28.092-8.714-10.862-6.973-26.731 3.889-35.444 10.862-8.714 26.731-6.973 35.444 3.889 11.992 14.948 18.026 27.628 23.397 42.069 4.854 13.052-1.792 27.567-14.843 32.421-13.054 4.853-27.566-1.792-32.421-14.843z"/></g><g><g fill="#eda1ab"><ellipse cx="269.67" cy="286.181" rx="29.355" ry="23.377"/><ellipse cx="428.783" cy="286.181" rx="29.355" ry="23.377"/></g></g><g><path d="M 502.599 190.96 C 495.313 183.674 485.132 180.612 475.414 181.968 L 478.706 166.117 C 479.873 160.499 478.465 154.724 474.844 150.273 C 467.846 141.673 458.154 143.515 456.769 143.27 C 456.388 143.27 456.097 142.944 456.142 142.563 L 459.918 111.298 C 461.284 99.99 450.492 91.083 439.659 94.527 L 416.311 101.957 C 416.038 102.045 415.74 101.936 415.587 101.696 L 394.733 69.091 C 389.212 60.46 377.003 59.361 370.043 66.949 L 352.032 86.591 C 351.815 86.826 351.457 86.863 351.199 86.678 L 319.763 64.25 C 311.416 58.293 299.694 61.845 296.063 71.443 C 290.058 87.316 290.581 86.204 290.201 86.356 C 289.797 86.517 292.659 87.774 248.152 66.234 C 238.889 61.752 227.897 67.276 225.982 77.4 L 223.294 91.617 C 223.219 92.021 222.784 92.256 222.391 92.065 L 183.87 72.832 C 175.133 68.47 164.592 73.098 161.875 82.458 C 151.613 117.799 152.337 115.704 151.958 115.898 C 151.593 116.084 152.497 116.298 139.404 111.662 C 135.499 110.278 131.213 112.323 129.83 116.227 C 128.447 120.132 130.491 124.418 134.395 125.801 L 146.45 130.071 C 154.912 133.067 164.176 128.319 166.681 119.695 C 176.943 84.354 176.211 86.423 176.632 86.239 C 177.053 86.054 174.423 84.883 215.69 105.486 C 224.972 110.121 236.103 104.606 238.032 94.405 L 240.72 80.188 C 240.797 79.776 241.239 79.553 241.616 79.737 L 283.157 99.841 C 291.417 103.836 301.341 99.881 304.587 91.302 C 310.593 75.429 310.063 76.504 310.499 76.372 C 310.955 76.229 308.884 74.914 342.485 98.891 C 348.901 103.471 357.758 102.542 363.085 96.731 L 381.096 77.089 C 381.373 76.786 381.869 76.818 382.094 77.175 L 402.948 109.78 C 406.757 115.735 414.122 118.395 420.857 116.253 L 444.205 108.823 C 444.644 108.681 445.08 109.033 445.024 109.501 L 441.248 140.766 C 440.712 145.203 442.105 149.666 445.07 153.01 C 450.958 159.652 458.595 158.031 460.116 158.272 C 462.644 158.272 464.532 160.59 464.018 163.068 L 453.49 213.759 C 413.97 189.502 313.336 168.691 251.697 206.355 C 248.625 200.075 244.844 194.575 241.231 190.962 C 228.72 178.451 208.363 178.451 195.852 190.962 C 183.341 203.474 183.341 223.831 195.852 236.341 C 200.153 240.642 206.856 244.889 214.094 248.045 C 169.523 305.855 117.334 340.072 95.483 342.747 C 87.223 343.756 86.761 345.541 45.203 363.607 C 43.651 364.298 41.98 362.935 42.377 361.264 L 51.317 323.669 C 53.051 316.38 49.278 309.025 42.346 306.182 C 12.888 294.096 15.112 295.159 15.01 294.666 C 14.905 294.156 12.964 296.372 40.448 268.12 C 46.619 261.777 46.306 251.607 39.759 245.654 C 18.728 226.532 20.309 228.16 20.412 227.649 C 20.514 227.141 17.263 228.445 55.47 214.835 C 64.124 211.753 68.269 201.886 64.414 193.548 C 50.029 162.438 50.898 164.686 51.169 164.239 C 51.44 163.792 48.255 164.093 90.738 162.14 C 98.906 161.764 105.454 155.067 105.647 146.893 C 106.588 115.403 105.985 116.549 106.727 116.19 C 110.459 114.393 112.028 109.911 110.23 106.179 C 108.433 102.447 103.949 100.879 100.219 102.676 C 94.894 105.24 91.499 110.499 91.361 116.399 L 90.651 146.54 C 90.643 146.871 90.379 147.141 90.048 147.156 L 50.99 148.952 C 39.921 149.462 32.856 161.041 37.52 171.128 C 51.705 201.804 50.975 199.954 50.807 200.354 C 50.639 200.754 52.85 199.845 15.786 213.048 C 4.673 217.006 1.772 231.391 10.515 239.34 C 31.339 258.273 29.861 256.79 29.874 257.202 C 29.887 257.617 31.472 255.835 4.424 283.639 C -3.279 291.557 -0.558 304.795 9.695 309.001 C 38.386 320.821 36.77 320.004 36.723 320.199 L 27.783 357.794 C 24.518 371.526 38.435 383.048 51.309 377.308 L 90.885 359.663 C 106.405 378.987 128.01 393.156 153.937 401.026 C 153.509 404.358 152.947 407.751 152.225 411.177 C 148.498 428.869 159.8 446.203 177.495 449.931 C 187.897 452.119 198.382 449.102 206.013 442.307 C 225.031 459.314 255.264 448.892 259.95 423.965 C 260.89 418.969 261.536 413.724 261.917 408.095 L 289.804 408.095 C 294.668 415.009 297.47 421.22 300.483 429.322 C 308.948 452.081 338.328 457.835 354.828 440.5 C 362.68 448.701 374.37 452.436 385.813 449.791 C 403.386 445.724 414.376 428.118 410.31 410.545 C 408.078 400.899 405.637 393.27 402.494 386.262 C 408.93 382.258 415.073 377.746 420.848 372.74 C 423.978 370.027 424.316 365.29 421.603 362.16 C 418.891 359.03 414.155 358.691 411.023 361.405 C 394.855 375.418 375.517 385.183 354.799 389.877 C 350.476 380.966 345.066 372.137 337.229 362.369 C 334.637 359.139 329.917 358.62 326.686 361.212 C 323.455 363.804 322.937 368.525 325.529 371.756 C 336.892 385.919 342.629 397.986 347.746 411.747 C 349.395 416.182 349.219 420.993 347.249 425.295 C 340.751 439.492 320.07 438.962 314.541 424.096 C 310.508 413.253 306.317 404.423 297.896 393.925 C 295.228 390.597 290.246 390.109 286.983 393.097 L 220.18 393.097 C 220.363 387.887 220.316 382.763 219.996 377.758 C 219.731 373.625 216.169 370.501 212.032 370.753 C 207.898 371.018 204.762 374.584 205.027 378.717 C 205.889 392.169 204.726 406.588 201.57 421.572 C 199.557 431.128 190.146 437.266 180.586 435.254 C 171.007 433.236 164.886 423.85 166.904 414.271 C 169.362 402.598 170.32 391.086 169.674 380.981 C 169.409 376.847 165.832 373.718 161.71 373.975 C 157.576 374.24 154.439 377.806 154.704 381.939 C 154.78 383.125 154.825 384.339 154.849 385.571 C 135.732 379.198 119.484 368.934 107.021 355.4 C 121.119 350.895 139.217 340.454 158.387 325.605 C 176.453 311.61 203.17 287.756 229.413 252.711 C 250.432 256.087 262.225 243.637 256.915 220.799 C 291.778 197.884 339.788 199.429 365.951 202.543 C 395.931 206.114 435.434 217.135 451.765 230.816 C 460.719 265.65 455.203 304.084 433.622 335.955 C 431.299 339.385 432.197 344.048 435.627 346.37 C 439.061 348.697 443.723 347.79 446.042 344.365 C 464.279 317.432 472.894 285.312 470.461 252.46 C 482.859 250.115 495.908 243.034 502.596 236.346 C 515.11 223.829 515.11 203.472 502.599 190.96 Z M 389.308 393.541 C 391.811 399.361 393.822 405.81 395.7 413.923 C 397.902 423.439 391.951 432.971 382.436 435.173 C 374.532 437.002 366.493 433.184 362.8 426.18 C 364.502 419.718 364.188 412.904 361.811 406.513 C 361.478 405.617 361.142 404.729 360.802 403.845 C 370.653 401.414 380.209 397.962 389.308 393.541 Z M 218.997 408.092 L 246.885 408.092 C 246.538 412.742 245.986 417.076 245.213 421.19 C 242.516 435.532 224.512 440.621 214.707 429.823 C 215.35 428.171 218.337 413.493 218.997 408.092 Z M 241.668 236.774 C 236.925 241.515 215.537 234.81 206.46 225.733 C 199.797 219.07 199.797 208.23 206.46 201.566 C 213.122 194.905 223.963 194.903 230.627 201.566 C 239.704 210.643 246.411 232.031 241.668 236.774 Z M 491.992 225.733 C 487.329 230.396 477.312 235.63 468.574 237.525 C 467.911 233.833 467.104 230.17 466.156 226.541 L 471.966 198.567 C 478.466 195.15 486.677 196.252 491.992 201.567 C 498.655 208.23 498.655 219.071 491.992 225.733 Z M 92.583 278.344 C 92.583 282.486 95.941 285.844 100.083 285.844 L 119.401 285.844 C 123.543 285.844 126.901 282.486 126.901 278.344 C 126.901 274.202 123.543 270.844 119.401 270.844 L 100.083 270.844 C 95.941 270.844 92.583 274.202 92.583 278.344 Z M 365.691 251.371 C 365.691 246.796 359.073 245.185 349.227 245.185 C 339.381 245.185 332.763 246.797 332.763 251.371 C 332.763 257.631 342.354 263.678 349.227 263.678 C 356.1 263.678 365.691 257.631 365.691 251.371 Z M 277.476 153.754 L 290.316 140.914 C 293.245 137.985 293.245 133.236 290.316 130.308 C 287.387 127.379 282.638 127.379 279.71 130.308 L 266.87 143.148 C 263.941 146.077 263.941 150.826 266.87 153.754 C 269.799 156.684 274.548 156.683 277.476 153.754 Z M 385.669 155.951 C 389.811 155.951 393.169 152.593 393.169 148.451 C 393.169 144.309 389.811 140.951 385.669 140.951 L 365.545 140.951 C 361.403 140.951 358.045 144.309 358.045 148.451 C 358.045 152.593 361.403 155.951 365.545 155.951 L 385.669 155.951 Z M 157.9 214.731 C 160.829 211.802 160.829 207.053 157.9 204.125 L 143.857 190.082 C 140.928 187.153 136.179 187.153 133.251 190.082 C 130.322 193.011 130.322 197.76 133.251 200.688 L 147.295 214.731 C 150.223 217.661 154.971 217.66 157.9 214.731 Z"/><path d="M 327.834 277.763 C 324.712 280.485 324.386 285.222 327.108 288.345 C 332.687 294.746 340.749 298.418 349.226 298.418 C 357.703 298.418 365.765 294.747 371.344 288.345 C 374.066 285.222 373.741 280.485 370.618 277.763 C 367.496 275.041 362.758 275.366 360.037 278.489 C 357.307 281.621 353.367 283.417 349.226 283.417 C 345.085 283.417 341.145 281.621 338.416 278.489 C 335.695 275.366 330.956 275.04 327.834 277.763 Z" style="transform-box: fill-box; transform-origin: 50% 50%;" transform="matrix(-1, 0, 0, -1, -0.000026, 0.000028)"/><g transform="matrix(1, 0, 0, 1, 0, 0.862344)"><path d="M 279.278 246.155 L 279.278 261.554 C 279.278 266.869 282.636 271.178 286.778 271.178 C 290.92 271.178 294.278 266.869 294.278 261.554 L 294.278 246.155 C 294.278 240.839 290.92 236.53 286.778 236.53 C 282.636 236.53 279.278 240.839 279.278 246.155 Z" style="transform-box: fill-box; transform-origin: 50% 50%;" transform="matrix(0.707107, -0.707107, 0.707107, 0.707107, 0.000009, -0.000003)"/><path d="M 279.278 246.155 L 279.278 261.554 C 279.278 266.869 282.636 271.178 286.778 271.178 C 290.92 271.178 294.278 266.869 294.278 261.554 L 294.278 246.155 C 294.278 240.839 290.92 236.53 286.778 236.53 C 282.636 236.53 279.278 240.839 279.278 246.155 Z" style="transform-origin: 286.778px 253.854px;" transform="matrix(0.707107, 0.707107, -0.707107, 0.707107, -0.000016, 0.000014)"/></g><g transform="matrix(1, 0, 0, 1, 120.666298, 0.862345)"><path d="M 279.278 246.155 L 279.278 261.554 C 279.278 266.869 282.636 271.178 286.778 271.178 C 290.92 271.178 294.278 266.869 294.278 261.554 L 294.278 246.155 C 294.278 240.839 290.92 236.53 286.778 236.53 C 282.636 236.53 279.278 240.839 279.278 246.155 Z" style="transform-box: fill-box; transform-origin: 50% 50%;" transform="matrix(0.707107, -0.707107, 0.707107, 0.707107, 0.000009, -0.000003)"/><path d="M 279.278 246.155 L 279.278 261.554 C 279.278 266.869 282.636 271.178 286.778 271.178 C 290.92 271.178 294.278 266.869 294.278 261.554 L 294.278 246.155 C 294.278 240.839 290.92 236.53 286.778 236.53 C 282.636 236.53 279.278 240.839 279.278 246.155 Z" style="transform-origin: 286.778px 253.854px;" transform="matrix(0.707107, 0.707107, -0.707107, 0.707107, -0.000016, 0.000014)"/></g></g></g></svg>