<!-- icon666.com - MILLIONS vector ICONS FREE --><svg id="Capa_1" enable-background="new 0 0 511.982 511.982" viewBox="0 0 511.982 511.982" xmlns="http://www.w3.org/2000/svg"><g><path d="m462.523 196.264c-9.602 9.602-20.643 36.211-11.041 45.814 9.602 9.602 36.211-1.438 45.814-11.041 9.602-9.602 9.602-25.171 0-34.773-9.603-9.603-25.171-9.603-34.773 0z" fill="#f8d4a5"></path><path d="m223.145 442.695c-13.685-2.574-22.693-15.753-20.12-29.438 1.917-10.195 1.469-22.351.863-31.802-.89-13.896 9.654-25.883 23.55-26.773 13.882-.89 25.883 9.654 26.773 23.55.794 12.393 1.326 28.633-1.629 44.344-2.576 13.706-15.776 22.689-29.437 20.119z" fill="#e1b89a"></path><path d="m353.878 423.6c-2.418-10.453-4.641-16.542-11.416-24.987-8.714-10.862-6.973-26.731 3.888-35.444 10.862-8.714 26.732-6.973 35.444 3.889 12.591 15.694 17.451 28.92 21.212 45.174 3.139 13.566-5.314 27.109-18.881 30.248-13.625 3.152-27.121-5.373-30.247-18.88z" fill="#e7c7af"></path><path d="m326.019 400.591s-28.533 0-122.255 0-141.679-68.912-126.916-130.649c14.319-59.878 94.374-144.064 249.172-144.064 75.86 0 137.357 61.497 137.357 137.357-.001 75.86-61.498 137.356-137.358 137.356z" fill="#fae0bd"></path><path d="m96.395 350.189c28.408-3.477 95.833-51.226 143.157-125.249 60.209-56.96 190.45-24.947 218.908 1.779l12.903-62.128c1.481-7.13-3.963-13.821-11.246-13.821h-3.349c-4.878 0-8.658-4.264-8.073-9.107l3.777-31.265c.71-5.877-4.898-10.519-10.539-8.724l-23.348 7.43c-3.51 1.117-7.332-.265-9.316-3.367l-20.853-32.605c-2.877-4.498-9.235-5.05-12.844-1.114l-18.012 19.643c-2.776 3.027-7.373 3.509-10.716 1.124l-31.436-22.429c-4.342-3.098-10.441-1.247-12.329 3.742l-5.505 14.55c-1.69 4.467-6.849 6.523-11.148 4.442l-41.541-20.104c-4.819-2.332-10.538.548-11.533 5.809l-2.688 14.216c-1.002 5.302-6.795 8.175-11.623 5.765l-38.521-19.234c-4.541-2.267-10.026.134-11.442 5.008l-9.598 33.054c-1.304 4.49-6.117 6.959-10.524 5.397l-39.248-13.902c-5.216-1.848-10.714 1.942-10.844 7.474l-.71 30.141c-.1 4.271-3.489 7.736-7.756 7.932l-39.058 1.796c-5.77.265-9.432 6.293-7.007 11.536l13.278 28.716c2.007 4.341-.147 9.468-4.652 11.073l-34.651 12.343c-5.785 2.061-7.286 9.545-2.742 13.677l19.152 17.413c3.403 3.094 3.565 8.391.358 11.687l-25.273 25.978c-4.016 4.128-2.586 11.008 2.742 13.194l26.957 11.059c3.471 1.424 5.389 5.163 4.521 8.813l-8.94 37.595c-1.83 7.694 5.953 14.149 13.176 10.928l41.426-18.47c2.128-.948 4.397-1.512 6.71-1.795z" fill="#e7c7af"></path><path d="m156.252 122.046c-2.064 1.406-4.746 1.859-7.296.955l-39.248-13.902c-5.216-1.848-10.714 1.942-10.844 7.474l-.71 30.141c-.1 4.271-3.489 7.736-7.756 7.932l-39.058 1.796c-5.77.265-9.432 6.293-7.007 11.536l13.278 28.716c2.007 4.341-.147 9.468-4.652 11.073l-34.653 12.343c-5.785 2.061-7.286 9.546-2.742 13.677l19.152 17.414c3.403 3.094 3.565 8.391.358 11.687l-25.271 25.977c-4.016 4.128-2.586 11.008 2.742 13.194l26.957 11.059c3.471 1.424 5.389 5.163 4.521 8.813l-8.94 37.595c-1.83 7.694 5.953 14.149 13.176 10.928l41.426-18.47c2.128-.949 4.398-1.513 6.71-1.796 19.805-2.424 58.574-26.372 96.274-65.733-52.511-43.731-46.212-120.913-36.417-162.409z" fill="#e1b89a"></path><g fill="#f8d4a5"><path d="m235.93 196.264c9.602 9.602 20.643 36.211 11.041 45.814-9.602 9.602-36.211-1.438-45.814-11.041-9.602-9.602-9.602-25.171 0-34.773 9.602-9.603 25.171-9.603 34.773 0z"></path><path d="m179.044 442.588c-13.626-2.87-22.346-16.242-19.476-29.868 2.321-11.019 3.228-21.83 2.624-31.265-.89-13.896 9.654-25.883 23.55-26.773 13.898-.89 25.883 9.654 26.773 23.55.905 14.131-.307 29.231-3.603 44.88-2.869 13.624-16.239 22.345-29.868 19.476z"></path><path d="m307.516 426.705c-3.87-10.406-7.641-18.338-15.466-28.092-8.714-10.862-6.973-26.731 3.889-35.444 10.862-8.714 26.731-6.973 35.444 3.889 11.992 14.948 18.026 27.628 23.397 42.069 4.854 13.052-1.792 27.567-14.843 32.421-13.054 4.853-27.566-1.792-32.421-14.843z"></path></g><g><g fill="#eda1ab"><ellipse cx="269.67" cy="286.181" rx="29.355" ry="23.377"></ellipse><ellipse cx="428.783" cy="286.181" rx="29.355" ry="23.377"></ellipse></g></g><path d="m502.599 190.96c-7.286-7.286-17.467-10.348-27.185-8.992l3.292-15.851c1.167-5.618-.241-11.393-3.862-15.844-6.998-8.6-16.69-6.758-18.075-7.003-.381 0-.672-.326-.627-.707l3.776-31.265c1.366-11.308-9.426-20.215-20.259-16.771l-23.348 7.43c-.273.088-.571-.021-.724-.261l-20.854-32.605c-5.521-8.631-17.73-9.73-24.69-2.142l-18.011 19.642c-.217.235-.575.272-.833.087l-31.436-22.428c-8.347-5.957-20.069-2.405-23.7 7.193-6.005 15.873-5.482 14.761-5.862 14.913-.404.161 2.458 1.418-42.049-20.122-9.263-4.482-20.255 1.042-22.17 11.166l-2.688 14.217c-.075.404-.51.639-.903.448l-38.521-19.233c-8.737-4.362-19.278.266-21.995 9.626-10.262 35.341-9.538 33.246-9.917 33.44-.365.186.539.4-12.554-4.236-3.905-1.384-8.191.661-9.574 4.565-1.383 3.905.661 8.191 4.565 9.574l12.055 4.27c8.462 2.996 17.726-1.752 20.231-10.376 10.262-35.341 9.53-33.272 9.951-33.456.421-.185-2.209-1.356 39.058 19.247 9.282 4.635 20.413-.88 22.342-11.081l2.688-14.217c.077-.412.519-.635.896-.451l41.541 20.104c8.26 3.995 18.184.04 21.43-8.539 6.006-15.873 5.476-14.798 5.912-14.93.456-.143-1.615-1.458 31.986 22.519 6.416 4.58 15.273 3.651 20.6-2.16l18.011-19.642c.277-.303.773-.271.998.086l20.854 32.605c3.809 5.955 11.174 8.615 17.909 6.473l23.348-7.43c.439-.142.875.21.819.678l-3.776 31.265c-.536 4.437.857 8.9 3.822 12.244 5.888 6.642 13.525 5.021 15.046 5.262 2.528 0 4.416 2.318 3.902 4.796l-10.528 50.691c-39.52-24.257-140.154-45.068-201.793-7.404-3.072-6.28-6.853-11.78-10.466-15.393-12.511-12.511-32.868-12.511-45.379 0-12.511 12.512-12.511 32.869 0 45.379 4.301 4.301 11.004 8.548 18.242 11.704-44.571 57.81-96.76 92.027-118.611 94.702-8.26 1.009-8.722 2.794-50.28 20.86-1.552.691-3.223-.672-2.826-2.343l8.94-37.595c1.734-7.289-2.039-14.644-8.971-17.487-29.458-12.086-27.234-11.023-27.336-11.516-.105-.51-2.046 1.706 25.438-26.546 6.171-6.343 5.858-16.513-.689-22.466-21.031-19.122-19.45-17.494-19.347-18.005.102-.508-3.149.796 35.058-12.814 8.654-3.082 12.799-12.949 8.944-21.287-14.385-31.11-13.516-28.862-13.245-29.309s-2.914-.146 39.569-2.099c8.168-.376 14.716-7.073 14.909-15.247.941-31.49.338-30.344 1.08-30.703 3.732-1.797 5.301-6.279 3.503-10.011-1.797-3.732-6.281-5.3-10.011-3.503-5.325 2.564-8.72 7.823-8.858 13.723l-.71 30.141c-.008.331-.272.601-.603.616l-39.058 1.796c-11.069.51-18.134 12.089-13.47 22.176 14.185 30.676 13.455 28.826 13.287 29.226s2.043-.509-35.021 12.694c-11.113 3.958-14.014 18.343-5.271 26.292 20.824 18.933 19.346 17.45 19.359 17.862.013.415 1.598-1.367-25.45 26.437-7.703 7.918-4.982 21.156 5.271 25.362 28.691 11.82 27.075 11.003 27.028 11.198l-8.94 37.595c-3.265 13.732 10.652 25.254 23.526 19.514l39.576-17.645c15.52 19.324 37.125 33.493 63.052 41.363-.428 3.332-.99 6.725-1.712 10.151-3.727 17.692 7.575 35.026 25.27 38.754 10.402 2.188 20.887-.829 28.518-7.624 19.018 17.007 49.251 6.585 53.937-18.342.94-4.996 1.586-10.241 1.967-15.87h27.887c4.864 6.914 7.666 13.125 10.679 21.227 8.465 22.759 37.845 28.513 54.345 11.178 7.852 8.201 19.542 11.936 30.985 9.291 17.573-4.067 28.563-21.673 24.497-39.246-2.232-9.646-4.673-17.275-7.816-24.283 6.436-4.004 12.579-8.516 18.354-13.522 3.13-2.713 3.468-7.45.755-10.58-2.712-3.13-7.448-3.469-10.58-.755-16.168 14.013-35.506 23.778-56.224 28.472-4.323-8.911-9.733-17.74-17.57-27.508-2.592-3.23-7.312-3.749-10.543-1.157s-3.749 7.313-1.157 10.544c11.363 14.163 17.1 26.23 22.217 39.991 1.649 4.435 1.473 9.246-.497 13.548-6.498 14.197-27.179 13.667-32.708-1.199-4.033-10.843-8.224-19.673-16.645-30.171-2.668-3.328-7.65-3.816-10.913-.828h-66.803c.183-5.21.136-10.334-.184-15.339-.265-4.133-3.827-7.257-7.964-7.005-4.134.265-7.27 3.831-7.005 7.964.862 13.452-.301 27.871-3.457 42.855-2.013 9.556-11.424 15.694-20.984 13.682-9.579-2.018-15.7-11.404-13.682-20.983 2.458-11.673 3.416-23.185 2.77-33.29-.265-4.134-3.842-7.263-7.964-7.006-4.134.265-7.271 3.831-7.006 7.964.076 1.186.121 2.4.145 3.632-19.117-6.373-35.365-16.637-47.828-30.171 14.098-4.505 32.196-14.946 51.366-29.795 18.066-13.995 44.783-37.849 71.026-72.894 21.019 3.376 32.812-9.074 27.502-31.912 34.863-22.915 82.873-21.37 109.036-18.256 29.98 3.571 69.483 14.592 85.814 28.273 8.954 34.834 3.438 73.268-18.143 105.139-2.323 3.43-1.425 8.093 2.005 10.415 3.434 2.327 8.096 1.42 10.415-2.005 18.237-26.933 26.852-59.053 24.419-91.905 12.398-2.345 25.447-9.426 32.135-16.114 12.514-12.517 12.514-32.874.003-45.386zm-113.291 202.581c2.503 5.82 4.514 12.269 6.392 20.382 2.202 9.516-3.749 19.048-13.264 21.25-7.904 1.829-15.943-1.989-19.636-8.993 1.702-6.462 1.388-13.276-.989-19.667-.333-.896-.669-1.784-1.009-2.668 9.851-2.431 19.407-5.883 28.506-10.304zm-170.311 14.551h27.888c-.347 4.65-.899 8.984-1.672 13.098-2.697 14.342-20.701 19.431-30.506 8.633.643-1.652 3.63-16.33 4.29-21.731zm22.671-171.318c-4.743 4.741-26.131-1.964-35.208-11.041-6.663-6.663-6.663-17.503 0-24.167 6.662-6.661 17.503-6.663 24.167 0 9.077 9.077 15.784 30.465 11.041 35.208zm250.324-11.041c-4.663 4.663-14.68 9.897-23.418 11.792-.663-3.692-1.47-7.355-2.418-10.984l5.81-27.974c6.5-3.417 14.711-2.315 20.026 3 6.663 6.663 6.663 17.504 0 24.166zm-399.409 52.611c0 4.142 3.358 7.5 7.5 7.5h19.318c4.142 0 7.5-3.358 7.5-7.5s-3.358-7.5-7.5-7.5h-19.318c-4.142 0-7.5 3.358-7.5 7.5zm273.108-26.973c0-4.575-6.618-6.186-16.464-6.186s-16.464 1.612-16.464 6.186c0 6.26 9.591 12.307 16.464 12.307s16.464-6.047 16.464-12.307zm-88.215-97.617 12.84-12.84c2.929-2.929 2.929-7.678 0-10.606-2.929-2.929-7.678-2.929-10.606 0l-12.84 12.84c-2.929 2.929-2.929 7.678 0 10.606 2.929 2.93 7.678 2.929 10.606 0zm108.193 2.197c4.142 0 7.5-3.358 7.5-7.5s-3.358-7.5-7.5-7.5h-20.124c-4.142 0-7.5 3.358-7.5 7.5s3.358 7.5 7.5 7.5zm-227.769 58.78c2.929-2.929 2.929-7.678 0-10.606l-14.043-14.043c-2.929-2.929-7.678-2.929-10.606 0-2.929 2.929-2.929 7.678 0 10.606l14.044 14.043c2.928 2.93 7.676 2.929 10.605 0zm121.378 36.947v12c0 4.142 3.358 7.5 7.5 7.5s7.5-3.358 7.5-7.5v-12c0-4.142-3.358-7.5-7.5-7.5s-7.5 3.358-7.5 7.5zm48.556 26.085c-3.122 2.722-3.448 7.459-.726 10.582 5.579 6.401 13.641 10.073 22.118 10.073s16.539-3.671 22.118-10.073c2.722-3.123 2.397-7.86-.726-10.582-3.122-2.722-7.86-2.397-10.581.726-2.73 3.132-6.67 4.928-10.811 4.928s-8.081-1.796-10.81-4.928c-2.721-3.123-7.46-3.449-10.582-.726zm76.341-26.085v12c0 4.142 3.358 7.5 7.5 7.5s7.5-3.358 7.5-7.5v-12c0-4.142-3.358-7.5-7.5-7.5s-7.5 3.358-7.5 7.5z"></path></g></svg>